<svg xmlns="http://www.w3.org/2000/svg" viewBox="0 0 100 100"><path fill="#fff" d="M88.558 49.96c0-.885-.435-1.663-1.097-2.15l.02-.025-9.32-5.383 5.37-9.296-.01-.01c.33-.753.32-1.644-.12-2.41-.443-.765-1.21-1.222-2.025-1.313v-.026H70.58V18.61h-.022c-.092-.816-.55-1.58-1.314-2.022-.767-.443-1.658-.456-2.412-.125l-.013-.023-9.49 5.474-5.25-9.094-.02.01c-.49-.66-1.27-1.093-2.15-1.093s-1.67.435-2.15 1.097l-.03-.014-5.34 9.244-9.19-5.306-.01.02c-.76-.33-1.65-.316-2.41.126-.77.442-1.22 1.208-1.32 2.025h-.03V29.6h-10.6v.02c-.817.093-1.58.55-2.023 1.315-.44.766-.45 1.657-.123 2.41l-.023.014 5.25 9.08-9.39 5.42.01.02c-.66.48-1.09 1.26-1.09 2.15s.436 1.66 1.098 2.15l-.013.02 9.323 5.39-5.365 9.29.02.01c-.33.75-.315 1.64.127 2.41.44.76 1.203 1.22 2.02 1.31v.025h10.77v10.74h.02c.093.817.55 1.58 1.315 2.023.765.445 1.66.457 2.41.127l.013.025 9.483-5.473 5.25 9.094.02-.01c.484.66 1.26 1.097 2.145 1.097.887 0 1.666-.432 2.15-1.093l.026.013 5.34-9.24 9.19 5.302.01-.02c.756.33 1.646.315 2.41-.127.768-.443 1.224-1.21 1.316-2.026h.03V70.4h10.61v-.02c.816-.093 1.58-.55 2.02-1.315.444-.766.457-1.658.128-2.41l.025-.014-5.24-9.08 9.397-5.42-.01-.02c.66-.48 1.094-1.26 1.094-2.15z"/></svg>