<svg xmlns="http://www.w3.org/2000/svg" width="100" height="100" viewBox="0 0 100 100"><path fill="#fff" d="M88.558 49.96c0-.885-.435-1.663-1.097-2.15l.02-.025-9.32-5.383 5.37-9.296-.01-.01c.327-.753.314-1.644-.128-2.41-.443-.765-1.21-1.222-2.025-1.313v-.026H70.58V18.61h-.022c-.092-.816-.55-1.58-1.314-2.022-.767-.443-1.658-.456-2.412-.125l-.013-.023-9.49 5.474-5.25-9.094-.02.01c-.49-.66-1.27-1.093-2.15-1.093s-1.67.435-2.15 1.097l-.03-.014-5.34 9.244-9.19-5.306-.01.02c-.754-.33-1.644-.316-2.41.126-.766.442-1.22 1.208-1.314 2.025h-.027V29.6h-10.6v.02c-.818.093-1.58.55-2.024 1.315-.44.766-.452 1.657-.123 2.41l-.023.014 5.25 9.08-9.39 5.42.01.02c-.66.482-1.09 1.26-1.09 2.15s.435 1.66 1.097 2.15l-.013.02 9.324 5.39-5.366 9.293.02.01c-.33.754-.314 1.644.128 2.41.44.765 1.203 1.222 2.02 1.313v.027h10.77v10.74h.02c.093.817.55 1.58 1.315 2.023.766.445 1.66.457 2.41.127l.014.023 9.483-5.473 5.25 9.094.02-.01c.484.66 1.26 1.096 2.145 1.096.886 0 1.665-.435 2.15-1.096l.025.013 5.34-9.242 9.19 5.304.01-.02c.756.33 1.646.316 2.41-.126.768-.443 1.224-1.21 1.316-2.026h.03V70.4h10.61v-.02c.814-.093 1.58-.55 2.02-1.315.442-.766.455-1.658.126-2.41l.024-.014-5.24-9.08 9.396-5.42-.01-.02c.66-.48 1.094-1.26 1.094-2.15z"/></svg>