<svg xmlns="http://www.w3.org/2000/svg" width="100" height="100" viewBox="0 0 100 100"><path d="M88.558 49.96c0-.885-.435-1.663-1.097-2.15l.02-.025-9.323-5.383 5.368-9.296-.017-.01c.328-.753.315-1.644-.127-2.41-.443-.765-1.21-1.222-2.025-1.313v-.026H70.58V18.61h-.022c-.092-.816-.55-1.58-1.314-2.022-.767-.443-1.658-.456-2.412-.125l-.013-.023-9.488 5.474-5.25-9.094-.02.01c-.487-.66-1.264-1.093-2.148-1.093-.886 0-1.665.435-2.15 1.097l-.026-.014-5.337 9.244-9.19-5.306-.01.02c-.753-.33-1.643-.316-2.41.126-.765.442-1.22 1.208-1.313 2.025h-.027V29.6H18.84v.02c-.817.093-1.58.55-2.023 1.315-.44.766-.452 1.657-.123 2.41l-.023.014 5.247 9.083-9.395 5.423.01.02c-.66.487-1.093 1.264-1.093 2.15s.435 1.663 1.097 2.15l-.014.024 9.324 5.39-5.367 9.295.02.01c-.33.754-.316 1.644.126 2.41.44.765 1.202 1.222 2.02 1.313v.027h10.77V81.39h.02c.092.816.55 1.58 1.314 2.022.767.443 1.658.455 2.412.125l.013.023 9.484-5.474 5.25 9.094.02-.01c.486.66 1.263 1.093 2.147 1.093.886 0 1.665-.435 2.15-1.096l.025.013 5.337-9.244 9.19 5.306.01-.02c.755.33 1.645.316 2.41-.126.767-.442 1.223-1.208 1.315-2.025h.03V70.4h10.61v-.02c.816-.093 1.58-.55 2.022-1.315.442-.766.455-1.658.126-2.41l.023-.014-5.243-9.082 9.395-5.424-.01-.02c.66-.486 1.093-1.264 1.093-2.15z"/></svg>