<svg xmlns="http://www.w3.org/2000/svg" width="100" height="100" viewBox="0 0 100 100"><path d="M88.558 49.96c0-.885-.435-1.663-1.097-2.15l.02-.025-9.32-5.383 5.37-9.296-.016-.01c.328-.753.315-1.644-.127-2.41-.443-.765-1.21-1.222-2.025-1.313v-.026H70.58V18.61h-.022c-.092-.816-.55-1.58-1.314-2.022-.767-.443-1.658-.456-2.412-.125l-.013-.023-9.49 5.474-5.25-9.094-.02.01c-.49-.66-1.268-1.093-2.15-1.093s-1.667.435-2.15 1.097l-.028-.014-5.337 9.244-9.19-5.306-.01.02c-.754-.33-1.644-.316-2.41.126-.766.442-1.22 1.208-1.314 2.025h-.026V29.6H18.84v.02c-.817.093-1.58.55-2.023 1.315-.44.766-.452 1.657-.123 2.41l-.023.014 5.25 9.08-9.392 5.42.01.02c-.66.487-1.093 1.264-1.093 2.15s.436 1.663 1.098 2.15l-.013.024 9.323 5.39-5.366 9.294.02.01c-.33.754-.315 1.644.127 2.41.44.765 1.203 1.222 2.02 1.313v.028h10.77v10.74h.02c.093.817.55 1.58 1.315 2.023.766.444 1.66.456 2.41.126l.014.023 9.485-5.473 5.25 9.094.02-.01c.484.66 1.26 1.095 2.145 1.095.887 0 1.666-.435 2.15-1.096l.026.012 5.34-9.243 9.19 5.305.01-.02c.755.33 1.645.316 2.41-.126.767-.443 1.223-1.21 1.315-2.026h.03V70.4h10.61v-.02c.815-.093 1.58-.55 2.02-1.315.443-.766.456-1.658.127-2.41l.024-.014-5.24-9.08 9.395-5.42-.01-.02c.66-.486 1.093-1.264 1.093-2.15z"/></svg>