<svg xmlns="http://www.w3.org/2000/svg" width="100" height="100" viewBox="0 0 100 100"><path fill="#fff" d="M94.974 17.838c-.127-1.257-1.16-2.24-2.443-2.277h-52.9c-1.31 0-2.38 1.01-2.51 2.29H37.1v13.14h22.34c1.173 0 2.126.894 2.242 2.037h.022v29.23h11.01l6.487 6.487c.454.677 1.23 1.12 2.104 1.12 1.403 0 2.54-1.135 2.54-2.536v-5.07h8.697v-.01c1.196-.03 2.187-.89 2.416-2.023H95V17.84h-.026z"/><path fill="#fff" d="M54.44 35.964H7.204v.006c-1.144.03-2.067.91-2.18 2.033H5v37.835h.046c.205 1.015 1.09 1.78 2.158 1.81v.005h7.765v4.53c0 1.25 1.01 2.264 2.26 2.264.78 0 1.47-.398 1.88-1.002l5.79-5.792h29.54c1.09 0 2.01-.78 2.22-1.815h.04V38.003h-.023c-.114-1.144-1.068-2.04-2.24-2.04z"/></svg>