<svg xmlns="http://www.w3.org/2000/svg" width="100" height="100" viewBox="0 0 100 100"><path d="M80.583 39.494H19.417c-.7 0-1.266.565-1.266 1.264v43.916c0 .698.57 1.264 1.27 1.264h61.164c.703 0 1.267-.566 1.267-1.264V40.758c0-.7-.564-1.264-1.266-1.264zM39.373 76.68c-2.11 0-4.443-.425-6.243-1.137-.27-.107-.437-.385-.396-.674l.59-4.297c.024-.19.136-.358.3-.456.17-.1.372-.117.548-.05 1.98.747 3.643 1.053 5.744 1.053 2.202 0 3.736-1.04 3.736-2.527 0-1.847-.89-2.835-5.762-3.113-.335-.02-.595-.296-.595-.63v-4.294c0-.332.255-.608.585-.632 4.195-.296 4.68-1.586 4.68-2.53 0-.64 0-1.71-2.84-1.71-1.52 0-3.132.415-4.792 1.227-.184.09-.398.085-.574-.01-.18-.093-.303-.27-.33-.47l-.588-4.29c-.04-.276.11-.544.36-.66 1.932-.896 4.37-1.35 7.253-1.35 5.134 0 8.586 2.387 8.586 5.938 0 2.662-1.377 4.622-4.202 5.954 2.425.936 4.903 2.633 4.903 6.223 0 5.122-4.303 8.433-10.967 8.433zm26.718-1.024c0 .35-.28.632-.63.632h-5.23c-.35 0-.63-.283-.63-.632V58.434l-3.436 1.31c-.184.068-.383.052-.548-.048-.167-.097-.28-.266-.303-.457l-.585-4.297c-.037-.27.102-.532.346-.65l7.493-3.707c.088-.042.184-.065.282-.065h2.61c.35 0 .633.284.633.634v24.5zM80.585 19.72h-6.52v3.05c0 3.236-1.844 6.69-7.03 6.69-5.184 0-7.03-3.454-7.03-6.69v-3.05H40.08v3.05c0 3.236-1.845 6.69-7.03 6.69-5.186 0-7.036-3.454-7.036-6.69v-3.05h-6.597c-.7 0-1.266.565-1.266 1.264v12.86c0 .7.57 1.265 1.27 1.265h61.164c.703 0 1.267-.57 1.267-1.27V20.98c0-.697-.564-1.262-1.266-1.262z"/><path d="M33.05 25.376c2.095 0 2.946-.755 2.946-2.606v-6.1c0-1.853-.85-2.607-2.946-2.607-2.1 0-2.952.755-2.952 2.607v6.1c0 1.852.85 2.606 2.952 2.606zm33.983 0c2.095 0 2.946-.755 2.946-2.606v-6.1c0-1.853-.854-2.607-2.95-2.607-2.1 0-2.945.755-2.945 2.607v6.1c0 1.852.845 2.606 2.946 2.606z"/></svg>