<svg xmlns="http://www.w3.org/2000/svg" width="100" height="100" viewBox="0 0 100 100"><path fill="#fff" d="M87.97 43.045l-8.254-8.25c-.478-.48-1.26-.48-1.738 0l-22.583 22.58.045.045-.072-.02-3.09 11.534.008.002c-.14.425-.053.908.286 1.25.376.378.93.45 1.383.236l.002.01 11.415-3.06-.007-.027.02.02L87.967 44.78c.48-.476.48-1.26 0-1.735zM56.034 66.697l1.836-6.846 5.013 5.02-6.848 1.84z"/><path fill="#fff" d="M71.967 73.23h-7.484c-.68.003-1.226.548-1.23 1.23l.003.01v8.716H21.612V21.81h4.997v3.068c-.01.033-.01.063-.01.097 0 .998.81 1.814 1.81 1.814l.01-.01v.01h28.03c1 0 1.81-.82 1.81-1.82 0-.02-.01-.03-.01-.05V21.8h4.99v8.718l-.006.013c.007.68.55 1.23 1.23 1.23h7.49c.68 0 1.225-.54 1.23-1.22V17.26h-.02c0-.05.014-.095.014-.145 0-2.893-2.345-5.245-5.24-5.245-.04 0-.076.01-.116.012H53.27V8.478c0-.88-.712-1.593-1.59-1.595v-.008H33.23v.006h-.043c-.88 0-1.594.72-1.594 1.6l.003.03v3.38H16.91c-2.893 0-5.242 2.36-5.242 5.24 0 .05.014.09.015.14h-.014v70.57l-.01.03c0 2.9 2.35 5.24 5.24 5.24.08 0 .15-.02.23-.02v.02h50.5c.095.01.19.03.29.03 2.89 0 5.24-2.35 5.24-5.24 0-.02-.01-.03-.01-.05h.027V74.46c-.004-.682-.548-1.226-1.23-1.228z"/></svg>