<svg xmlns="http://www.w3.org/2000/svg" width="100" height="100" viewBox="0 0 100 100"><path d="M87.97 43.045l-8.254-8.25c-.478-.48-1.26-.48-1.738 0l-22.583 22.58.045.045-.072-.02-3.09 11.534.008.002c-.14.425-.053.908.286 1.25.376.378.93.45 1.383.236l.002.01 11.415-3.06-.007-.027.02.02L87.967 44.78c.48-.476.48-1.26 0-1.735zM56.034 66.697l1.836-6.846 5.013 5.015-6.848 1.834z"/><path d="M71.967 73.23h-7.484c-.68.003-1.226.548-1.23 1.23l.003.01v8.716H21.612V21.81h4.997v3.068c-.005.033-.01.063-.01.097 0 .998.81 1.814 1.81 1.814l.015-.004v.008h28.027c1.005-.002 1.813-.816 1.813-1.813 0-.014-.004-.03-.004-.043v-3.13h4.993v8.717l-.002.012c.003.68.547 1.226 1.23 1.228h7.484c.68-.003 1.226-.547 1.23-1.228V17.26h-.02c0-.05.015-.095.015-.145 0-2.893-2.347-5.245-5.24-5.245-.04 0-.078.01-.118.012H53.276V8.478c0-.88-.714-1.593-1.593-1.595v-.008h-18.45v.006h-.043c-.88 0-1.594.712-1.594 1.593l.003.03v3.38H16.912c-2.893 0-5.242 2.353-5.242 5.242 0 .047.014.09.015.137h-.014v70.57h.004l-.003.03c0 2.894 2.35 5.237 5.244 5.237.078 0 .15-.02.23-.024v.02h50.5c.097.006.19.03.29.03 2.893 0 5.238-2.348 5.238-5.238 0-.02-.005-.036-.005-.055h.027V74.46c-.004-.682-.548-1.226-1.23-1.228z"/></svg>