<svg xmlns="http://www.w3.org/2000/svg" viewBox="0 0 100 100"><path fill="#fff" d="M80.583 39.494H19.417c-.7 0-1.266.565-1.266 1.264v43.916c0 .698.57 1.264 1.27 1.264h61.17c.71 0 1.27-.566 1.27-1.264V40.758c0-.7-.56-1.264-1.26-1.264zM39.373 76.68c-2.11 0-4.443-.425-6.243-1.137-.27-.107-.437-.385-.396-.674l.59-4.3c.024-.19.136-.36.3-.46.17-.1.372-.12.548-.05 1.98.74 3.643 1.05 5.744 1.05 2.202 0 3.736-1.04 3.736-2.53 0-1.85-.89-2.84-5.762-3.117-.335-.02-.595-.297-.595-.63v-4.29c0-.33.255-.608.585-.63 4.195-.298 4.68-1.588 4.68-2.53 0-.64 0-1.71-2.84-1.71-1.52 0-3.132.413-4.792 1.225-.184.09-.398.085-.574-.01-.18-.093-.303-.27-.33-.47l-.588-4.29c-.04-.276.11-.544.36-.66 1.932-.896 4.37-1.35 7.253-1.35 5.13 0 8.58 2.387 8.58 5.94 0 2.66-1.38 4.62-4.2 5.953 2.42.936 4.9 2.633 4.9 6.223 0 5.12-4.31 8.432-10.97 8.432zm26.718-1.024c0 .35-.28.632-.63.632h-5.23c-.35 0-.63-.283-.63-.632V58.434l-3.43 1.31c-.18.068-.38.052-.55-.048-.16-.097-.28-.266-.3-.457l-.58-4.3c-.034-.27.1-.53.35-.65l7.492-3.71c.087-.04.183-.07.28-.07h2.61c.35 0 .634.28.634.63v24.5zm14.5-55.936h-6.52v3.05c0 3.236-1.84 6.69-7.03 6.69-5.18 0-7.03-3.454-7.03-6.69v-3.05H40.08v3.05c0 3.236-1.845 6.69-7.03 6.69-5.186 0-7.036-3.454-7.036-6.69v-3.05h-6.597c-.7 0-1.266.565-1.266 1.264v12.86c0 .7.57 1.265 1.27 1.265h61.17c.71 0 1.27-.57 1.27-1.27V20.98c0-.697-.56-1.262-1.26-1.262z"/><path fill="#fff" d="M33.05 25.376c2.095 0 2.946-.755 2.946-2.606v-6.1c0-1.853-.85-2.607-2.946-2.607-2.1 0-2.952.755-2.952 2.607v6.1c0 1.852.85 2.606 2.952 2.606zm33.983 0c2.095 0 2.946-.755 2.946-2.606v-6.1c0-1.853-.86-2.607-2.95-2.607-2.1 0-2.95.755-2.95 2.607v6.1c0 1.852.84 2.606 2.94 2.606z"/></svg>