<svg xmlns="http://www.w3.org/2000/svg" width="100" height="100" viewBox="0 0 100 100"><path d="M80.302 18.915l.042-.042-.008-.008c.523-.57.518-1.45-.033-2.003L78.25 14.81c-.552-.552-1.433-.557-2.003-.034l-.01-.01-8.84 8.844c-.568.566-.568 1.486 0 2.053l2.052 2.054c.56.567 1.48.567 2.05 0l8.8-8.802zm-31.754.36h2.903c.79 0 1.42-.62 1.45-1.394h.01V5.38c0-.802-.65-1.452-1.453-1.452v-.002H48.55c-.802 0-1.452.65-1.452 1.453v12.5h.006c.032.77.664 1.39 1.446 1.39zm43.065 20.722c0-.783-.62-1.415-1.393-1.446H77.716c-.802 0-1.452.65-1.452 1.45v2.9c0 .806.65 1.456 1.452 1.456H90.22v-.006c.774-.033 1.393-.666 1.393-1.448V40zM50 24.2c-11.756 0-21.285 9.53-21.285 21.286 0 4.608 1.48 8.862 3.968 12.346h-.008c3.174 4.952 5.157 11.512 5.303 18.74.255.418.71.702 1.237.702.056 0 .11-.01.163-.017v.017H60.55v-.017c.054.006.107.017.162.017.575 0 1.067-.337 1.303-.822.175-7.584 2.37-14.43 5.843-19.44 2.154-3.323 3.427-7.27 3.427-11.525C71.285 33.73 61.755 24.2 50 24.2zm10.712 65.588c-.056 0-.108.01-.162.017v-.017H39.378v.017c-.054-.006-.107-.017-.163-.017-.8 0-1.452.65-1.452 1.452v3.384c0 .802.65 1.452 1.452 1.452.056 0 .11-.01.163-.017v.01H60.55v-.016c.054.005.107.015.162.015.802 0 1.452-.65 1.452-1.45v-3.38c0-.805-.65-1.454-1.452-1.454zm0-9.44c-.056 0-.108.01-.162.017v-.017H39.378v.017c-.054-.006-.107-.017-.163-.017-.784 0-1.42.624-1.447 1.403l-.005.06v3.38c0 .8.65 1.45 1.452 1.45.056 0 .11-.01.163-.016v.017H60.55v-.017c.054.007.107.018.162.018.802 0 1.452-.65 1.452-1.45V81.8c0-.803-.65-1.452-1.452-1.452zM22.344 39.685v-.006H9.84c-.803 0-1.453.65-1.453 1.45v2.9c0 .8.65 1.45 1.452 1.45h12.5v-.006c.77-.033 1.39-.666 1.39-1.446v-2.9c0-.78-.62-1.414-1.393-1.446zM20.2 18.415l8.84 8.843.01-.01c.57.524 1.45.52 2.002-.032l2.054-2.054c.552-.552.556-1.434.033-2.003l.002-.01L24.3 14.3c-.566-.566-1.486-.566-2.053 0L20.2 16.36c-.568.57-.568 1.488 0 2.055z"/></svg>