<svg xmlns="http://www.w3.org/2000/svg" viewBox="0 0 100 100"><path fill="#fff" d="M96.117 57.583l-16.185-7.72c3.774-2.372 6.338-7.015 6.338-12.353 0-7.754-5.397-14.034-12.058-14.034-2.29 0-4.403.78-6.223 2.066 1.084 2.756 1.7 5.796 1.7 9 0 4.78-1.41 9.316-3.826 13.065.833.932 1.77 1.735 2.81 2.36l-.01.003 10.425 4.97c2.946 1.428 4.852 4.584 4.852 8.046v13.54H95.09c1.49 0 2.695-1.4 2.695-3.13V60.492c0-1.282-.66-2.42-1.668-2.91zm-64.55-7.758c.86-.548 1.65-1.22 2.368-1.987-2.514-3.78-3.972-8.4-3.972-13.297 0-3.27.646-6.37 1.777-9.17-1.76-1.17-3.773-1.893-5.948-1.893-6.666 0-12.062 6.28-12.062 14.034 0 5.426 2.65 10.12 6.524 12.458l-16.35 7.61c-1.02.48-1.69 1.63-1.69 2.915v12.903c0 1.73 1.21 3.13 2.694 3.13h10.805v-13.54c0-3.503 1.938-6.672 4.943-8.08l10.91-5.08z"/><path d="M76.94 59.386L62.863 52.67l-5.952-2.84c2.6-1.636 4.713-4.164 6.095-7.21 1.096-2.417 1.75-5.154 1.75-8.08 0-1.642-.26-3.2-.624-4.706-1.77-7.293-7.465-12.665-14.3-12.665-6.71 0-12.317 5.18-14.197 12.264-.434 1.625-.733 3.315-.733 5.105 0 3.11.726 6.007 1.96 8.53 1.427 2.923 3.542 5.335 6.116 6.886l-5.702 2.654-14.534 6.77c-1.262.59-2.092 2.015-2.092 3.605v15.97c0 2.14 1.492 3.875 3.333 3.875h51.693c1.84 0 3.333-1.735 3.333-3.875v-15.97c0-1.584-.815-2.995-2.065-3.6z"/></svg>