<svg xmlns="http://www.w3.org/2000/svg" viewBox="0 0 100 100"><path fill="#fff" d="M50 12.5c-20.712 0-37.5 16.793-37.5 37.502C12.5 70.712 29.288 87.5 50 87.5s37.5-16.788 37.5-37.498C87.5 29.292 70.712 12.5 50 12.5zM22.897 54.97h5.752c.98 7.43 4.14 14.172 8.82 19.568-7.5-3.844-13.02-11.022-14.58-19.57zm5.752-9.94h-5.76c1.56-8.546 7.075-15.724 14.58-19.568-4.68 5.396-7.846 12.137-8.83 19.568zm16.38 23.03c-3.18-3.65-5.41-8.14-6.32-13.09h6.31v13.09zm0-23.03h-6.32c.904-4.948 3.133-9.437 6.31-13.088V45.03zm32.07 0h-5.75c-.99-7.43-4.15-14.172-8.83-19.567 7.5 3.845 13.01 11.023 14.573 19.567zM54.97 68.057V54.97h6.313c-.908 4.947-3.137 9.437-6.313 13.087zm0-23.027V31.94c3.177 3.65 5.406 8.14 6.313 13.09H54.97zm7.553 29.51c4.677-5.398 7.843-12.14 8.827-19.57h5.753c-1.563 8.547-7.078 15.725-14.58 19.57z"/></svg>