<svg xmlns="http://www.w3.org/2000/svg" width="100" height="100" viewBox="0 0 100 100"><path d="M88.553 43.44l-10.276-1.01c-.66-2.466-1.644-4.832-2.936-7.06l6.563-7.992c.703-.86.64-2.11-.145-2.893l-6.24-6.243c-.42-.42-.97-.633-1.525-.633-.485 0-.97.16-1.37.49l-7.993 6.56c-2.23-1.293-4.596-2.276-7.06-2.936l-1.01-10.278c-.11-1.104-1.04-1.946-2.15-1.946h-8.82c-1.11 0-2.04.842-2.15 1.946l-1.01 10.28c-2.464.66-4.83 1.644-7.054 2.937L27.378 18.1c-.4-.33-.884-.49-1.37-.49-.554 0-1.104.21-1.524.632l-6.24 6.24c-.784.783-.848 2.038-.145 2.894l6.564 7.996c-1.29 2.225-2.277 4.59-2.936 7.057l-10.28 1.01c-1.106.105-1.95 1.035-1.95 2.145v8.825c0 1.11.844 2.04 1.948 2.146l10.28 1.013c.66 2.466 1.645 4.83 2.937 7.054L18.1 72.618c-.707.857-.647 2.11.14 2.894l6.24 6.242c.42.418.97.63 1.526.63.485 0 .97-.16 1.37-.488l7.992-6.562c2.23 1.293 4.59 2.276 7.06 2.938l1.01 10.28c.11 1.103 1.038 1.945 2.148 1.945h8.823c1.11 0 2.04-.843 2.15-1.947l1.01-10.278c2.47-.66 4.83-1.643 7.06-2.94l7.992 6.563c.4.327.884.49 1.37.49.554 0 1.104-.214 1.524-.632l6.24-6.242c.788-.782.848-2.036.14-2.894l-6.557-7.992c1.29-2.228 2.274-4.59 2.935-7.057l10.276-1.012c1.105-.11 1.948-1.036 1.948-2.146v-8.826c0-1.11-.843-2.037-1.947-2.146zm-38.55 18.51C43.4 61.95 38.05 56.6 38.05 50c0-6.602 5.35-11.95 11.95-11.95S61.95 43.397 61.95 50c0 6.6-5.35 11.95-11.948 11.95z"/></svg>