<svg id="Layer_1" xmlns="http://www.w3.org/2000/svg" viewBox="0 0 92.5 58.8"><style>.st0{fill:#DC4E41;}</style><title>Layer 1 copy</title><path class="st0" d="M.1 27.9C.3 12.8 14.2-.5 29.4 0 36.6-.3 43.5 2.8 49 7.3c-2.4 2.7-4.8 5.3-7.4 7.7-6.7-4.6-16.2-5.9-22.9-.6-9.6 6.6-10 22.2-.8 29.3 8.9 8.1 25.8 4.1 28.3-8.3-5.6-.1-11.2 0-16.8-.2v-10h28.1c.6 7.9-.5 16.2-5.3 22.7-7.3 10.3-22 13.3-33.4 8.9C7.2 52.4-.9 40.3.1 27.9zM75.7 16.7H84c0 2.8 0 5.6.1 8.4 2.8 0 5.6 0 8.4.1v8.3c-2.8 0-5.6 0-8.4.1 0 2.8 0 5.6-.1 8.4h-8.4c0-2.8 0-5.6-.1-8.4-2.8 0-5.6-.1-8.4-.1v-8.3c2.8 0 5.6 0 8.4-.1.2-2.8.2-5.6.2-8.4z"/></svg>