<svg xmlns="http://www.w3.org/2000/svg" viewBox="0 0 172.6 89.2"><path d="M36.3 78.7V43c0-.5.2-.8.7-1.2.5-.3 1-.5 1.5-.5.6 0 1.1.2 1.6.5s.7.7.7 1.1v13.6h8.8c.5 0 .8.2 1.1.6.3.4.4.8.4 1.3s-.1.9-.4 1.3c-.3.4-.7.6-1.1.6h-8.8v18.3c0 2.2.5 3.7 1.4 4.6.9.9 2.6 1.3 4.9 1.3H49c.6 0 1.1.2 1.5.6.4.4.6.9.6 1.4 0 .6-.2 1.1-.6 1.5-.4.4-.9.6-1.5.6h-2c-7.1.1-10.7-3.2-10.7-9.9zm21.4 1.5c0-3.6 1.3-6 4-7.4 2.7-1.4 6.6-2.1 11.8-2.1H77v-1.6c0-2.4-.7-4.6-2-6.4-1.3-1.8-3.3-2.7-6-2.7-1.8 0-3.5.3-4.9 1-1.5.6-2.3 1-2.3 1-.5 0-1-.2-1.3-.7-.3-.5-.5-1-.5-1.6 0-.9 1-1.7 2.9-2.4s4-1.1 6.2-1.1c4.3 0 7.4 1.2 9.3 3.7 2 2.5 3 5.6 3 9.4v17.6c0 .5-.2.9-.6 1.3-.4.3-.9.5-1.6.5-.6 0-1.1-.2-1.5-.5-.4-.3-.6-.8-.6-1.3v-3c-3 3.5-6.4 5.2-10.2 5.2-2.7 0-4.9-.8-6.7-2.3-1.6-1.4-2.5-3.7-2.5-6.6zm4.4-.4c0 1.9.5 3.3 1.6 4.2 1.1.9 2.5 1.4 4.3 1.4 2.1 0 4.2-.8 6.1-2.4 1.9-1.6 2.9-3.2 2.9-4.7V74h-2.9c-1.8 0-3.3.1-4.6.2-1.2.1-2.5.4-3.7.7-1.2.4-2.1.9-2.8 1.8-.5.8-.9 1.8-.9 3.1zm27.6-3.5V69c0-3.8 1.1-6.9 3.3-9.3 2.2-2.4 5.5-3.6 9.8-3.6 2.7 0 5 .5 6.8 1.5 1.8 1 2.7 2 2.7 3 0 .5-.2 1-.6 1.5-.4.5-.9.7-1.4.7-.3 0-.7-.2-1.3-.6-.6-.4-1.4-.8-2.4-1.2-1-.4-2.3-.6-3.7-.6-2.9 0-5.1.8-6.6 2.3-1.5 1.5-2.3 3.7-2.3 6.4v7.2c0 2.8.8 5 2.3 6.5 1.5 1.5 3.7 2.3 6.7 2.3 1.5 0 2.8-.2 3.9-.6 1.1-.4 1.9-.8 2.4-1.3.6-.4 1-.6 1.3-.6.6 0 1.1.2 1.5.7.4.5.6 1 .6 1.5 0 1-.9 2-2.8 3s-4.3 1.5-7.1 1.5c-4.3 0-7.6-1.2-9.8-3.5-2.2-2.5-3.3-5.6-3.3-9.5zm30.1 10.6V38.5c0-.5.2-.8.6-1.2.4-.3.9-.5 1.6-.5.6 0 1.2.2 1.6.5.4.3.6.7.6 1.2v33l16.6-14.7c.5-.3.8-.4 1-.4.5 0 1.1.2 1.5.6.5.4.7.9.7 1.5 0 .5-.2.9-.5 1.2l-10 8.8 11.7 17.2c.2.4.3.7.3.9 0 .5-.2 1-.7 1.5-.5.5-1 .7-1.6.7-.5 0-1-.3-1.4-.8l-11.4-16.8-6.2 5.5v10.1c0 .5-.2.9-.6 1.2-.4.4-1 .5-1.6.5-.6 0-1.1-.2-1.5-.5-.4-.2-.7-.6-.7-1.1zm31.2-2.6c0-.5.2-.9.5-1.4.3-.5.7-.7 1.1-.7.3 0 .8.3 1.5.8s1.7 1.1 2.9 1.6c1.3.5 2.8.8 4.5.8 2.4 0 4.2-.5 5.3-1.4 1.1-.9 1.7-2.1 1.7-3.5 0-1.6-.6-2.9-1.7-3.9-1.2-1-2.5-1.7-4.2-2.2-1.6-.5-3.3-1-4.9-1.5-1.7-.5-3.1-1.4-4.2-2.6-1.2-1.2-1.7-2.9-1.7-5 0-2.5.9-4.6 2.7-6.5 1.8-1.8 4.5-2.7 8-2.7 2.2 0 4.3.4 6.2 1.1 1.9.7 2.9 1.5 2.9 2.3 0 .5-.2.9-.5 1.5-.4.5-.8.8-1.3.8-.1 0-1-.3-2.5-.9-1.5-.6-3.1-1-4.7-1-2.3 0-4 .5-5.1 1.6-1.1 1.1-1.7 2.3-1.7 3.6 0 1.4.6 2.5 1.8 3.3 1.2.8 2.6 1.4 4.2 1.9s3.3 1 5 1.5 3.1 1.5 4.2 3 1.7 3.4 1.7 5.7c0 2.7-1 4.9-2.9 6.4-1.9 1.6-4.6 2.3-8 2.3-3 0-5.5-.5-7.6-1.6-2.2-1.1-3.2-2.2-3.2-3.3z" fill="#69BD45"/><path fill="#69BD45" d="M0 82.7c0-.5.2-1 .6-1.5.4-.5.8-.8 1.2-.8.3 0 .7.3 1.2.8L4.7 83c.6.6 1.5 1.2 2.9 1.7 1.3.5 2.8.8 4.5.8 2.8 0 5-.7 6.6-2.1 1.6-1.4 2.3-3.5 2.3-6.1 0-1.8-.4-3.3-1.1-4.6-.7-1.3-1.7-2.2-2.8-2.9-1.1-.7-2.4-1.4-3.8-1.9L9 66.2c-1.4-.6-2.7-1.2-3.9-2-1.1-.8-2.1-1.9-2.8-3.3-.7-1.4-1.1-3.1-1.1-5.1 0-2.1.4-3.9 1.2-5.4.8-1.5 1.8-2.6 3.1-3.4 1.3-.8 2.7-1.3 4-1.7 1.4-.3 2.8-.5 4.4-.5 2.4 0 4.7.4 6.9 1 2.1.7 3.2 1.6 3.2 2.6 0 .5-.2 1-.5 1.5s-.8.8-1.2.8c-.2 0-.7-.2-1.4-.6-.7-.4-1.6-.7-2.9-1.1-1.2-.4-2.6-.6-4.2-.6-2.5 0-4.6.5-6.2 1.6C5.9 51.1 5 52.8 5 55.3c0 1.7.5 3.2 1.5 4.3 1 1.2 2.2 2 3.7 2.5s3.1 1.1 4.8 1.9c1.7.7 3.3 1.5 4.8 2.3 1.5.8 2.7 2.1 3.7 3.9 1 1.8 1.5 4 1.5 6.6 0 4.1-1.1 7.2-3.4 9.2-2.3 2.1-5.4 3.1-9.2 3.1-3.5 0-6.4-.7-8.8-2.2C1.2 85.4 0 84 0 82.7zm38.4-4.1V60.3h-8.8c-.5 0-.8-.2-1.1-.6-.3-.4-.4-.8-.4-1.3s.1-.9.4-1.3c.3-.4.7-.6 1.1-.6h8.8V43"/><path fill="#9D9D9D" d="M81.4 49.2c-.1 0-.2 0-.3-.1L51.3 38s-.1 0-.1-.1c-.5-.3-1-.7-1.3-1.2-.6-.8-.9-1.8-.9-3s.3-2.2.9-3.1c0-.1.1-.1.1-.2s-.1-.1-.1-.2c-.6-.8-.9-1.8-.9-3s.3-2.2.9-3.1c0-.1.1-.1.1-.2s-.1-.1-.1-.2c-.6-.8-.9-1.8-.9-3s.3-2.2.9-3.1c.3-.5.8-.8 1.3-1h.1l.2-.2L81 .1c.2-.1.4-.1.7-.1.2 0 .4 0 .6.1l28.8 12.3c.3.1.6.5.6.8s-.2.7-.5.9L82.3 29.4c-.2.1-.4.1-.7.1h-.5l-29.5-11-.2.2c-.4.5-.5 1.2-.5 2s.2 1.4.5 1.9c.1.1.2.3.3.4.1 0 .2.1.4.1l29.5 11 28.8-15.8v-1.5c0-.5.4-1 1-1 .5 0 1 .4 1 1v1.9c.1.4-.1.8-.5 1L82.3 35.9c-.2.1-.5.1-.7.1h-.5L51.6 25l-.2.2c-.4.5-.5 1.2-.5 2s.2 1.4.5 1.9c.1.1.2.3.3.4.2 0 .3.1.5.3l29.4 11L110.4 25v-1.1c0-.5.4-1 1-1 .5 0 1 .4 1 1v1.7c0 .3-.2.7-.5.8L82.3 42.5c-.2.1-.5.1-.7.1h-.5l-29.6-11-.1.1c-.4.5-.5 1.2-.5 2s.2 1.4.5 1.9c.2.3.4.5.6.6l29.6 11 28.8-15.8v-1.1c0-.5.4-1 1-1 .5 0 1 .4 1 1V32c0 .3-.2.7-.5.8L82.3 49c-.2.1-.5.1-.7.1 0 .1-.1.1-.2.1zM53.7 17.3l27.9 10.4 26.9-14.2L81.7 1.9l-28 15.4zM81 24.7c-.1 0-.2 0-.3-.1l-6.2-2.3c-.5-.2-.7-.7-.6-1.2.2-.5.7-.7 1.2-.6l6.2 2.3c.5.2.7.7.6 1.2-.2.5-.5.7-.9.7zm12.1-7.8c-.1 0-.3 0-.4-.1l-15.1-6.5c-.5-.2-.7-.8-.5-1.3.2-.5.8-.7 1.3-.5L93.5 15c.5.2.7.8.5 1.3-.1.3-.5.6-.9.6zm3.4-2.9c-.1 0-.3 0-.4-.1l-15-6.4c-.5-.2-.7-.8-.5-1.3.2-.5.8-.7 1.3-.5L97 12.2c.5.2.7.8.5 1.3-.2.3-.6.5-1 .5z"/></svg>