<svg xmlns="http://www.w3.org/2000/svg" viewBox="0 0 63.4 49.2"><path fill="#9D9D9D" d="M32.5 49.2c-.1 0-.2 0-.3-.1L2.3 38s-.1 0-.1-.1c-.5-.3-1-.7-1.3-1.2-.6-.8-.9-1.8-.9-3s.3-2.2.9-3.1c0-.1.1-.1.1-.2s-.1-.1-.1-.2c-.6-.8-.9-1.8-.9-3s.3-2.2.9-3.1c0-.1.1-.1.1-.2s-.1-.1-.1-.2c-.6-.8-.9-1.8-.9-3s.3-2.2.9-3.1c.3-.5.8-.8 1.3-1h.1l.2-.2L32 .1c.2-.1.5-.1.7-.1.2 0 .4 0 .6.1l28.8 12.3c.3.1.6.5.6.8 0 .4-.2.7-.5.9L33.3 29.4c-.2.1-.4.1-.7.1h-.5l-29.5-11-.2.2c-.4.5-.5 1.2-.5 2s.2 1.4.5 1.9c.1.1.2.3.3.4.1 0 .2.1.4.1l29.5 11 28.8-15.8v-1.5c0-.5.4-1 1-1s1 .4 1 1v1.9c.1.4-.1.8-.5 1L33.3 35.9c-.2.1-.5.1-.7.1h-.5L2.6 25l-.2.2c-.4.5-.5 1.2-.5 2s.2 1.4.5 1.9c.1.1.2.3.3.4.2 0 .3.1.5.3l29.4 11L61.4 25v-1.1c0-.5.4-1 1-1s1 .4 1 1v1.7c0 .3-.2.7-.5.8L33.3 42.5c-.2.1-.5.1-.7.1h-.5l-29.6-11-.1.1c-.4.5-.5 1.2-.5 2s.2 1.4.5 1.9c.2.3.4.5.6.6l29.6 11 28.8-15.8v-1.1c0-.5.4-1 1-1s1 .4 1 1V32c0 .3-.2.7-.5.8L33.3 49c-.2.1-.5.1-.7.1 0 .1-.1.1-.1.1zM4.8 17.3l27.9 10.4 26.9-14.2L32.7 1.9 4.8 17.3zM32 24.7c-.1 0-.2 0-.3-.1l-6.2-2.3c-.5-.2-.7-.7-.6-1.2.2-.5.7-.7 1.2-.6l6.2 2.3c.5.2.7.7.6 1.2-.1.5-.5.7-.9.7zm12.2-7.8c-.1 0-.3 0-.4-.1l-15.1-6.5c-.5-.2-.7-.8-.5-1.3.2-.5.8-.7 1.3-.5l15 6.5c.5.2.7.8.5 1.3-.1.3-.5.6-.8.6zm3.4-2.9c-.1 0-.3 0-.4-.1L32.1 7.5c-.5-.2-.7-.8-.5-1.3.2-.5.8-.7 1.3-.5L48 12.2c.5.2.7.8.5 1.3-.2.3-.6.5-.9.5z"/></svg>